/vscmnt/brussel_pixiu_data/_data_brussel/112/vsc11236/PredSimResults/SUBJ07mtu3D/worker4.mot
version=1
nRows=9
nColumns=50
inDegrees=yes
endheader
                time	         pelvis_tilt	         pelvis_list	     pelvis_rotation	           pelvis_tx	           pelvis_ty	           pelvis_tz	       hip_flexion_r	     hip_adduction_r	      hip_rotation_r	        knee_angle_r	       ankle_angle_r	         mtp_angle_r	       hip_flexion_l	     hip_adduction_l	      hip_rotation_l	        knee_angle_l	       ankle_angle_l	         mtp_angle_l	    lumbar_extension	      lumbar_bending	     lumbar_rotation	 ercspn_r/activation	 intobl_r/activation	 extobl_r/activation	    abd_r/activation	    add_r/activation	hamstrings_r/activation	bifemsh_r/activation	glut_max_r/activation	iliopsoas_r/activation	rect_fem_r/activation	  vasti_r/activation	gastroc_r/activation	 soleus_r/activation	tib_ant_r/activation	 ercspn_l/activation	 intobl_l/activation	 extobl_l/activation	    abd_l/activation	    add_l/activation	hamstrings_l/activation	bifemsh_l/activation	glut_max_l/activation	iliopsoas_l/activation	rect_fem_l/activation	  vasti_l/activation	gastroc_l/activation	 soleus_l/activation	tib_ant_l/activation	
          0.00000000	         -3.96013648	          0.39660434	          8.64109869	          0.00000000	          0.85035051	         -0.01288296	         29.99961569	         -2.70875086	         -4.42225945	         -7.33813867	          3.27262619	          0.26766053	        -14.58586088	          0.74084645	          4.07335879	         -8.99014583	          7.68833631	         27.97167220	        -11.54553280	         -2.16547059	         -1.33532869	          0.12268235	          0.13635376	          0.01000554	          0.02092346	          0.13175249	          0.06667505	          0.12238458	          0.08155613	          0.03846623	          0.01183006	          0.01000151	          0.01000317	          0.01000096	          0.38881962	          0.12978761	          0.01000145	          0.01000147	          0.03396573	          0.01420102	          0.01749521	          0.13718421	          0.01963295	          0.15931638	          0.01184445	          0.01183731	          0.16184054	          0.26638353	          0.01676591	
          0.01102852	         -3.95181351	          0.44714383	          8.63965500	          0.01582653	          0.84876027	         -0.01264876	         29.79323159	         -2.50375739	         -4.04059526	         -8.85839038	          2.95929793	          0.24986867	        -15.13506514	          0.67379030	          3.73964831	         -9.91410325	          6.75606452	         29.48035745	        -11.41854503	         -1.78152450	         -1.56375644	          0.10363452	          0.12305159	          0.01000134	          0.01937480	          0.11129673	          0.06310631	          0.12169322	          0.13204418	          0.03249380	          0.01000292	          0.01000105	          0.01583008	          0.01184048	          0.42096440	          0.14304702	          0.01000060	          0.01000704	          0.02869197	          0.02971714	          0.01481023	          0.11588618	          0.01658494	          0.13458983	          0.01000831	          0.01000196	          0.13671194	          0.24782874	          0.01416273	
          0.02205704	         -3.93907730	          0.49621539	          8.58715004	          0.03177230	          0.84738289	         -0.01232957	         29.50408329	         -2.34762801	         -3.68682496	        -10.27589477	          2.57065580	          0.24446212	        -15.52064006	          0.62218782	          3.36219026	        -11.14553334	          5.73516281	         30.91871132	        -11.29050457	         -1.39523527	         -1.78243733	          0.13873524	          0.10394607	          0.01000146	          0.10436502	          0.12838833	          0.05671288	          0.10301824	          0.13153156	          0.02744874	          0.01000156	          0.01000035	          0.01337246	          0.01000219	          0.47926431	          0.15565474	          0.01000047	          0.01000164	          0.02423705	          0.02510425	          0.01255996	          0.09789470	          0.01401030	          0.11370995	          0.01002501	          0.01000299	          0.11548493	          0.22662661	          0.01196376	
          0.03308556	         -3.92351983	          0.56195529	          8.48733217	          0.04764954	          0.84638305	         -0.01191356	         29.21958210	         -2.20940519	         -3.40538646	        -11.68080247	          2.15636536	          0.22479290	        -15.66726706	          0.60511172	          2.95384473	        -12.78579003	          4.59579106	         32.23407143	        -11.18263041	         -1.02680114	         -1.99015065	          0.14959364	          0.08780673	          0.01000135	          0.15145149	          0.15352460	          0.04870040	          0.08702480	          0.15774814	          0.02318700	          0.01000269	          0.01000117	          0.01129698	          0.01000107	          0.50077091	          0.19262399	          0.01000053	          0.01000160	          0.02047384	          0.02903238	          0.01128338	          0.08269671	          0.01183581	          0.09606009	          0.01002089	          0.01000463	          0.09755379	          0.19408937	          0.01010627	
          0.04411408	         -3.90527901	          0.63709305	          8.34656439	          0.06332501	          0.84589513	         -0.01140953	         28.99950754	         -2.07791646	         -3.17304968	        -13.21979804	          1.98059728	          0.20507768	        -15.50613460	          0.61430968	          2.52087728	        -14.93292746	          3.35577623	         33.28218037	        -11.10240179	         -0.66951452	         -2.18595794	          0.15830404	          0.07417326	          0.01000114	          0.18946385	          0.17838242	          0.04344030	          0.07351425	          0.18097122	          0.01958699	          0.01000301	          0.02599618	          0.01000277	          0.01000201	          0.49906460	          0.22882438	          0.01000051	          0.01000166	          0.01729494	          0.05189798	          0.01040907	          0.06985902	          0.01000148	          0.08114811	          0.01000723	          0.01000140	          0.08240678	          0.16395361	          0.01000040	
          0.05514260	         -3.88555404	          0.71987883	          8.16616794	          0.07870241	          0.84604293	         -0.01083086	         28.82413281	         -1.95253692	         -2.98686798	        -14.84028849	          2.05969333	          0.18622001	        -14.97017742	          0.64789195	          2.05656991	        -17.68051381	          2.02450713	         33.86832391	        -11.05240438	         -0.32399854	         -2.36716897	          0.16659845	          0.06265661	          0.01000104	          0.20941649	          0.20041922	          0.04187503	          0.06210182	          0.19109841	          0.01654600	          0.01000322	          0.04869046	          0.01000383	          0.01000154	          0.47691331	          0.25279181	          0.01000051	          0.01000157	          0.01460962	          0.08092369	          0.01011597	          0.05901564	          0.01000082	          0.06855006	          0.01000517	          0.01000073	          0.06961163	          0.13849681	          0.01000056	
          0.06617112	         -3.86547933	          0.81057349	          7.94732304	          0.09377070	          0.84685882	         -0.01019734	         28.61542646	         -1.82893234	         -2.82929055	        -16.39150441	          2.36318155	          0.17389137	        -14.02211544	          0.70085377	          1.56143677	        -21.06748284	          0.55733978	         33.84816539	        -11.02504955	          0.00789342	         -2.53060498	          0.16651389	          0.05292811	          0.01000105	          0.21468262	          0.21143137	          0.04158251	          0.05246201	          0.19245520	          0.01397728	          0.01000276	          0.06460910	          0.01000326	          0.01000140	          0.43686158	          0.26041057	          0.01000056	          0.01000182	          0.01234126	          0.10397539	          0.01013408	          0.04985834	          0.01000067	          0.05790741	          0.01000359	          0.01000046	          0.05880317	          0.11699262	          0.01000042	
          0.07719964	         -3.84632303	          0.90573216	          7.69162192	          0.10854882	          0.84828115	         -0.00952194	         28.30287258	         -1.69818129	         -2.67296891	        -17.73648502	          2.84297951	          0.18107933	        -12.65873369	          0.76116329	          1.06045467	        -25.04152556	         -1.20005766	         33.23031398	        -11.01133737	          0.32794855	         -2.67343140	          0.14157829	          0.04471012	          0.01000092	          0.20927648	          0.21191062	          0.04713663	          0.04431980	          0.17743273	          0.01180772	          0.01000414	          0.09113243	          0.01000295	          0.01000121	          0.38998568	          0.26954976	          0.01000045	          0.01000129	          0.01042514	          0.11940555	          0.01004257	          0.04212742	          0.01000042	          0.04891693	          0.01000276	          0.01000022	          0.04967293	          0.09882734	          0.01000083	
          0.08822816	         -3.83001985	          1.00175613	          7.39949789	          0.12303108	          0.85021429	         -0.00879921	         27.83199322	         -1.54948813	         -2.48119910	        -18.75690705	          3.41493241	          0.23407878	        -10.90395266	          0.82105923	          0.59358484	        -29.49668275	         -3.28297082	         31.84272938	        -11.00956080	          0.63420411	         -2.79580779	          0.11959598	          0.03776811	          0.01000130	          0.21139282	          0.19857847	          0.05524363	          0.03744264	          0.14988483	          0.01000178	          0.01000223	          0.11283853	          0.01000383	          0.01000137	          0.34504160	          0.26160964	          0.01000071	          0.01000164	          0.01000028	          0.12842884	          0.01478913	          0.03558912	          0.01000090	          0.04132217	          0.01000187	          0.01000027	          0.04196035	          0.08348257	          0.05204384	
